<?xml version="1.0" standalone="no"?>
<!DOCTYPE svg PUBLIC "-//W3C//DTD SVG 20010904//EN"
 "http://www.w3.org/TR/2001/REC-SVG-20010904/DTD/svg10.dtd">
<svg version="1.0" xmlns="http://www.w3.org/2000/svg"
 width="1024.000000pt" height="1024.000000pt" viewBox="0 0 1024.000000 1024.000000"
 preserveAspectRatio="xMidYMid meet">
<metadata>
Created by potrace 1.11, written by Peter Selinger 2001-2013
</metadata>
<g transform="translate(0.000000,1024.000000) scale(0.100000,-0.100000)"
fill="#000000" stroke="none">
<path d="M4 5120 l0 -5120 5116 0 5116 0 0 5120 0 5120 -5116 0 -5116 0 0
-5120z m7289 3983 c-1190 -2 -3136 -2 -4325 0 -1190 1 -217 2 2162 2 2379 0
3352 -1 2163 -2z m-6545 -10 c-10 -2 -26 -2 -35 0 -10 3 -2 5 17 5 19 0 27 -2
18 -5z m8770 0 c-10 -2 -26 -2 -35 0 -10 3 -2 5 17 5 19 0 27 -2 18 -5z
m-8853 -13 c-11 -5 -29 -8 -40 -8 -16 0 -15 2 5 8 34 11 60 11 35 0z m8912 4
c-3 -3 -12 -4 -19 -1 -8 3 -5 6 6 6 11 1 17 -2 13 -5z m40 -10 c-3 -3 -12 -4
-19 -1 -8 3 -5 6 6 6 11 1 17 -2 13 -5z m-9027 -13 c-8 -5 -26 -11 -40 -15
-21 -5 -20 -3 5 9 32 15 60 20 35 6z m9120 -17 c23 -9 39 -18 37 -20 -2 -3
-24 4 -48 15 -54 24 -45 27 11 5z m-9191 -8 c-10 -9 -89 -46 -89 -41 0 6 72
44 84 45 5 0 7 -2 5 -4z m9386 -109 c66 -49 173 -165 208 -226 29 -50 13 -36
-27 24 -54 81 -150 175 -241 234 -44 29 -82 55 -85 58 -14 17 86 -45 145 -90z
m-9485 60 c0 -2 -24 -20 -53 -40 -52 -36 -167 -149 -215 -212 -13 -17 -10 -10
7 15 50 76 261 267 261 237z m-300 -307 c-6 -11 -13 -20 -16 -20 -2 0 0 9 6
20 6 11 13 20 16 20 2 0 0 -9 -6 -20z m10040 -64 c0 -12 -5 -7 -19 24 -11 24
-11 24 3 6 9 -11 16 -24 16 -30z m-10099 -57 c-11 -24 -20 -41 -20 -37 -1 12
31 89 35 85 3 -2 -4 -24 -15 -48z m10129 -14 c0 -5 -5 -3 -10 5 -5 8 -10 20
-10 25 0 6 5 3 10 -5 5 -8 10 -19 10 -25z m-10153 -57 c-3 -8 -6 -5 -6 6 -1
11 2 17 5 13 3 -3 4 -12 1 -19z m-10 -40 c-3 -8 -6 -5 -6 6 -1 11 2 17 5 13 3
-3 4 -12 1 -19z m10190 0 c-3 -8 -6 -5 -6 6 -1 11 2 17 5 13 3 -3 4 -12 1 -19z
m-10200 -55 c-3 -10 -5 -4 -5 12 0 17 2 24 5 18 2 -7 2 -21 0 -30z m10210 0
c-3 -10 -5 -4 -5 12 0 17 2 24 5 18 2 -7 2 -21 0 -30z m-9290 -149 c-3 -3 -12
-4 -19 -1 -8 3 -5 6 6 6 11 1 17 -2 13 -5z m8390 0 c-3 -3 -12 -4 -19 -1 -8 3
-5 6 6 6 11 1 17 -2 13 -5z m-8444 -28 c-10 -13 -20 -22 -22 -20 -4 4 29 44
36 44 2 0 -4 -11 -14 -24z m8496 -20 c-2 -2 -13 8 -23 22 l-19 27 24 -22 c12
-12 21 -24 18 -27z m-8517 -548 c2 -141 0 -254 -4 -251 -5 2 -7 181 -6 396 1
216 4 329 5 252 2 -77 4 -255 5 -397z m8525 -60 c-1 -112 -2 -23 -2 197 0 220
1 311 2 203 2 -108 2 -288 0 -400z m-8525 -3988 c-2 -1359 0 -1534 13 -1560 9
-17 13 -30 11 -30 -3 0 -12 13 -21 30 -13 26 -15 206 -15 1553 0 1279 2 1537
14 1537 1 0 0 -689 -2 -1530z m8526 -11 l-3 -1524 -5 1532 c-3 843 -2 1529 3
1524 4 -4 6 -693 5 -1532z m-6481 394 c-191 -2 -503 -2 -695 0 -191 1 -34 2
348 2 382 0 539 -1 347 -2z m3125 0 c-347 -2 -917 -2 -1265 0 -347 1 -63 2
633 2 696 0 980 -1 632 -2z m-4175 -9 c-3 -3 -12 -4 -19 -1 -8 3 -5 6 6 6 11
1 17 -2 13 -5z m1430 0 c-3 -3 -12 -4 -19 -1 -8 3 -5 6 6 6 11 1 17 -2 13 -5z
m797 -19 c-27 -14 -51 -25 -54 -25 -12 1 76 50 89 50 8 0 -8 -11 -35 -25z
m2657 2 c37 -25 79 -81 79 -106 0 -9 -9 2 -19 24 -22 49 -48 73 -98 91 -25 8
-31 13 -17 14 12 0 36 -10 55 -23z m-4936 2 c-11 -6 -33 -25 -49 -42 -19 -21
-24 -25 -17 -10 13 25 58 63 75 63 6 0 2 -5 -9 -11z m1556 -28 c22 -21 39 -45
39 -52 0 -8 -9 1 -20 19 -11 18 -34 41 -52 52 -18 11 -27 20 -19 20 7 0 31
-17 52 -39z m636 -83 c-3 -8 -6 -5 -6 6 -1 11 2 17 5 13 3 -3 4 -12 1 -19z
m-2280 -20 c-3 -7 -5 -2 -5 12 0 14 2 19 5 13 2 -7 2 -19 0 -25z m1690 10 c-3
-8 -6 -5 -6 6 -1 11 2 17 5 13 3 -3 4 -12 1 -19z m580 -630 c-1 -117 -2 -24
-2 207 0 231 1 327 2 213 2 -114 2 -303 0 -420z m2840 4 c-1 -114 -2 -20 -2
208 0 228 1 322 2 207 2 -114 2 -300 0 -415z m-3410 11 c-1 -109 -2 -20 -2
197 0 217 1 306 2 198 2 -109 2 -287 0 -395z m-1710 20 c-1 -103 -2 -21 -2
182 0 204 1 288 2 188 2 -100 2 -266 0 -370z m10 -255 c-3 -8 -6 -5 -6 6 -1
11 2 17 5 13 3 -3 4 -12 1 -19z m1690 -10 c-3 -7 -5 -2 -5 12 0 14 2 19 5 13
2 -7 2 -19 0 -25z m3409 -12 c-6 -26 -62 -96 -76 -96 -4 0 7 15 26 34 19 19
37 48 40 65 4 18 9 29 12 27 2 -3 2 -16 -2 -30z m-2807 -21 c0 -5 -4 -3 -9 5
-5 8 -9 22 -9 30 0 16 17 -16 18 -35z m-2209 -65 c17 -7 29 -15 26 -17 -17
-17 -106 70 -106 103 0 5 11 -10 25 -32 14 -23 38 -47 55 -54z m1578 38 c-8
-12 -25 -29 -39 -37 -17 -11 -14 -5 11 21 40 42 48 47 28 16z m707 -46 c11 -6
14 -12 7 -12 -7 0 -27 15 -45 33 -18 17 -21 22 -7 11 14 -12 34 -26 45 -32z
m-2212 -19 c-7 -2 -19 -2 -25 0 -7 3 -2 5 12 5 14 0 19 -2 13 -5z m1404 1 c-3
-3 -12 -4 -19 -1 -8 3 -5 6 6 6 11 1 17 -2 13 -5z m866 -1 c-7 -2 -19 -2 -25
0 -7 3 -2 5 12 5 14 0 19 -2 13 -5z m2550 0 c-7 -2 -19 -2 -25 0 -7 3 -2 5 12
5 14 0 19 -2 13 -5z m-3795 -10 c-179 -2 -476 -2 -660 0 -183 1 -36 2 327 2
363 0 513 -1 333 -2z m3125 0 c-337 -2 -889 -2 -1225 0 -337 1 -62 2 612 2
674 0 949 -1 613 -2z m3304 -845 c-7 -4 -1900 -8 -4207 -8 -2307 0 -4200 4
-4207 8 -6 4 1887 7 4207 7 2320 0 4213 -3 4207 -7z m-9310 -170 c-3 -7 -5 -2
-5 12 0 14 2 19 5 13 2 -7 2 -19 0 -25z m10210 -5 c-3 -10 -5 -4 -5 12 0 17 2
24 5 18 2 -7 2 -21 0 -30z m-10200 -45 c-3 -7 -5 -2 -5 12 0 14 2 19 5 13 2
-7 2 -19 0 -25z m10190 0 c-3 -8 -6 -5 -6 6 -1 11 2 17 5 13 3 -3 4 -12 1 -19z
m-10031 -309 c25 -32 68 -79 97 -103 29 -25 63 -54 77 -66 l25 -22 -31 21
c-53 35 -133 111 -179 171 -43 56 -115 179 -115 196 0 5 18 -24 40 -65 22 -40
61 -100 86 -132z m9959 123 c-21 -38 -53 -87 -72 -108 l-34 -39 34 48 c19 26
50 76 68 111 19 36 35 63 37 61 2 -2 -13 -35 -33 -73z m-161 -210 c-33 -32
-76 -68 -95 -81 -29 -20 -29 -18 6 11 22 18 63 54 90 80 28 26 52 48 55 47 3
0 -22 -26 -56 -57z m-9459 -180 c-4 -5 -96 43 -120 62 -11 9 12 -1 52 -21 39
-21 70 -39 68 -41z m9310 62 c-24 -19 -111 -64 -122 -64 -8 0 127 78 137 79 3
0 -4 -7 -15 -15z m-198 -90 c-3 -3 -12 -4 -19 -1 -8 3 -5 6 6 6 11 1 17 -2 13
-5z m-8980 -10 c-3 -3 -12 -4 -19 -1 -8 3 -5 6 6 6 11 1 17 -2 13 -5z m61 -11
c-10 -2 -26 -2 -35 0 -10 3 -2 5 17 5 19 0 27 -2 18 -5z m8845 0 c-7 -2 -21
-2 -30 0 -10 3 -4 5 12 5 17 0 24 -2 18 -5z m-8735 -10 c-15 -2 -42 -2 -60 0
-18 2 -6 4 27 4 33 0 48 -2 33 -4z m8650 0 c-15 -2 -42 -2 -60 0 -18 2 -6 4
27 4 33 0 48 -2 33 -4z"/>
</g>
</svg>
